<svg width="32" height="32" viewBox="0 0 32 32" fill="none" xmlns="http://www.w3.org/2000/svg">
<g clip-path="url(#clip0_139_591)">
<path d="M28.0722 4.00004H24.9448C24.7475 3.99833 24.5531 4.04816 24.3809 4.14459C24.2087 4.24103 24.0646 4.38073 23.9629 4.54989L22.9026 6.32709L22.0238 7.79991H9.96625L10.845 9.27273L11.7189 10.7455C11.8752 11.0073 12.0966 11.224 12.3616 11.3746C12.6266 11.5252 12.9263 11.6045 13.2311 11.6047H18.764C19.0688 11.6045 19.3683 11.5252 19.6333 11.3746C19.8983 11.224 20.1198 11.0073 20.276 10.7455L21.1499 9.27273L22.0287 7.79991H26.3391C26.8344 7.80121 27.3088 7.99885 27.6585 8.34949C28.0083 8.70013 28.2047 9.17516 28.2047 9.67039V21.5757C28.2047 21.8207 28.1565 22.0633 28.0627 22.2896C27.9689 22.516 27.8315 22.7216 27.6583 22.8948C27.4851 23.0681 27.2794 23.2055 27.053 23.2992C26.8267 23.393 26.5841 23.4412 26.3391 23.4412H22.0287L21.1499 21.9684L20.276 20.4956C20.1198 20.2339 19.8983 20.0171 19.6333 19.8666C19.3683 19.716 19.0688 19.6367 18.764 19.6365H13.2311C12.9263 19.6367 12.6266 19.716 12.3616 19.8666C12.0966 20.0171 11.8752 20.2339 11.7189 20.4956L10.845 21.9684L9.96625 23.4412H22.0238L22.9026 24.9141L23.9629 26.6913C24.0646 26.8604 24.2087 27.0001 24.3809 27.0966C24.5531 27.193 24.7475 27.2428 24.9448 27.2411H28.0722C29.1138 27.2411 30.1127 26.8273 30.8493 26.0908C31.5858 25.3542 31.9997 24.3552 31.9997 23.3136V7.91773C31.9971 6.87779 31.5821 5.88134 30.8458 5.14691C30.1095 4.41248 29.1121 4.00004 28.0722 4.00004Z" fill="black"/>
<path d="M5.66511 23.4412C5.17033 23.4412 4.69582 23.2447 4.34595 22.8948C3.99609 22.545 3.79964 22.0705 3.79964 21.5757V9.67039C3.79964 9.17516 3.99599 8.70013 4.34571 8.34949C4.69544 7.99885 5.16988 7.80121 5.66511 7.79991H9.98049L9.10169 6.32709L8.04131 4.54989C7.93964 4.38073 7.79556 4.24103 7.62336 4.14459C7.45116 4.04816 7.25679 3.99833 7.05943 4.00004H3.92729C2.88565 4.00004 1.8866 4.41383 1.15005 5.15038C0.413498 5.88694 -0.000230307 6.88592 -0.000230307 7.92756V23.3283C-0.00160323 23.8437 0.0992308 24.3542 0.296419 24.8303C0.493607 25.3064 0.783159 25.7387 1.14849 26.1021C1.51146 26.4681 1.94372 26.7582 2.41995 26.9554C2.89618 27.1527 3.40692 27.2531 3.92237 27.2509H7.06925C7.26661 27.2527 7.46098 27.2028 7.63319 27.1064C7.80539 27.01 7.94947 26.8703 8.05113 26.7011L9.11152 24.9239L9.99032 23.4511H5.67494L5.66511 23.4412Z" fill="black"/>
</g>
<defs>
<clipPath id="clip0_139_591">
<rect width="32" height="32" fill="white"/>
</clipPath>
</defs>
</svg>
