<svg width="34" height="25" viewBox="0 0 34 25" fill="none" xmlns="http://www.w3.org/2000/svg">
<path d="M28.9866 0.501021H25.7574C25.5536 0.499252 25.3529 0.550703 25.1751 0.650277C24.9973 0.749852 24.8485 0.894101 24.7435 1.06878L23.6486 2.90386L22.7412 4.42464H10.291L11.1984 5.94543L12.1008 7.46621C12.2621 7.73647 12.4907 7.96029 12.7644 8.11577C13.0381 8.27126 13.3474 8.35311 13.6622 8.35333H19.3753C19.69 8.35311 19.9992 8.27126 20.2729 8.11577C20.5466 7.96029 20.7752 7.73647 20.9365 7.46621L21.8389 5.94543L22.7463 4.42464H27.1971C27.7085 4.42598 28.1984 4.63006 28.5595 4.99212C28.9206 5.35418 29.1235 5.84467 29.1235 6.35604V18.649C29.1235 18.902 29.0736 19.1525 28.9768 19.3862C28.88 19.6199 28.7381 19.8323 28.5592 20.0112C28.3804 20.19 28.168 20.3319 27.9342 20.4287C27.7005 20.5255 27.4501 20.5754 27.1971 20.5754H22.7463L21.8389 19.0546L20.9365 17.5338C20.7752 17.2635 20.5466 17.0398 20.2729 16.8843C19.9992 16.7288 19.69 16.6469 19.3753 16.6467H13.6622C13.3474 16.6469 13.0381 16.7288 12.7644 16.8843C12.4907 17.0398 12.2621 17.2635 12.1008 17.5338L11.1984 19.0546L10.291 20.5754H22.7412L23.6486 22.0962L24.7435 23.9312C24.8485 24.1059 24.9973 24.2502 25.1751 24.3497C25.3529 24.4493 25.5536 24.5008 25.7574 24.499H28.9866C30.0622 24.499 31.0936 24.0717 31.8542 23.3112C32.6147 22.5507 33.042 21.5191 33.042 20.4436V4.5463C33.0393 3.47249 32.6108 2.44358 31.8506 1.68524C31.0903 0.926887 30.0604 0.501017 28.9866 0.501021Z" fill="white"/>
<path d="M5.84986 20.5754C5.33897 20.5754 4.849 20.3724 4.48774 20.0112C4.12648 19.6499 3.92363 19.1599 3.92363 18.649V6.35604C3.92363 5.84467 4.12638 5.35418 4.48749 4.99212C4.8486 4.63006 5.3385 4.42598 5.84986 4.42464H10.3058L9.39836 2.90386L8.30344 1.06878C8.19846 0.894101 8.0497 0.749852 7.87188 0.650277C7.69407 0.550703 7.49337 0.499252 7.28958 0.501021H4.05544C2.97987 0.501021 1.9483 0.928284 1.18776 1.68882C0.427216 2.44936 1.4284e-05 3.48088 1.4284e-05 4.55645V20.4588C-0.00140335 20.9909 0.102715 21.518 0.306325 22.0096C0.509935 22.5013 0.808916 22.9476 1.18615 23.3229C1.56093 23.7008 2.00727 24.0004 2.49901 24.204C2.99075 24.4077 3.51813 24.5114 4.05037 24.5091H7.29973C7.50352 24.5109 7.70422 24.4595 7.88203 24.3599C8.05984 24.2603 8.20861 24.1161 8.31359 23.9414L9.40851 22.1063L10.3159 20.5855H5.86001L5.84986 20.5754Z" fill="white"/>
</svg>
